<?xml version="1.0" standalone="no"?>
<!DOCTYPE svg PUBLIC "-//W3C//DTD SVG 20010904//EN"
 "http://www.w3.org/TR/2001/REC-SVG-20010904/DTD/svg10.dtd">
<svg version="1.0" xmlns="http://www.w3.org/2000/svg"
 width="1921.000000pt" height="1979.000000pt" viewBox="0 0 1921.000000 1979.000000"
 preserveAspectRatio="xMidYMid meet">

<g transform="translate(0.000000,1979.000000) scale(0.100000,-0.100000)"
fill="#000000" stroke="none">
<path d="M6898 16859 c-303 -46 -544 -290 -588 -594 -8 -57 -10 -383 -8 -1150
4 -1190 0 -1109 73 -1254 88 -176 222 -293 415 -363 l65 -23 1970 -6 c2131 -6
2000 -3 2215 -58 424 -110 810 -404 1035 -786 99 -167 166 -347 207 -547 l23
-113 0 -1200 c0 -1131 -1 -1206 -19 -1300 -70 -374 -237 -681 -511 -943 -275
-263 -625 -422 -1014 -462 -140 -14 -2172 -14 -2312 0 -397 41 -746 201 -1023
469 -260 252 -415 532 -497 896 l-23 100 -6 1350 -5 1350 -26 56 c-53 113
-146 173 -269 174 -62 0 -85 -5 -132 -28 -64 -32 -111 -80 -142 -146 l-21 -46
0 -1325 c0 -1417 -1 -1397 51 -1640 203 -951 1009 -1681 1981 -1795 189 -22
2347 -22 2535 0 501 58 964 277 1322 624 379 368 600 791 688 1321 l23 135 0
1205 0 1205 -23 135 c-58 346 -171 643 -350 915 -378 577 -977 948 -1662 1031
-91 11 -346 13 -1242 14 l-1128 0 0 1085 c0 1225 3 1169 -76 1334 -82 170
-239 301 -429 360 l-80 25 -480 2 c-264 1 -506 -2 -537 -7z m973 -618 l29 -29
0 -1077 0 -1076 -471 3 -471 3 -29 33 -29 32 0 1041 0 1041 29 29 29 29 442 0
442 0 29 -29z"/>
<path d="M8455 12444 c-38 -8 -112 -36 -164 -61 -79 -38 -108 -59 -175 -127
-128 -129 -186 -248 -206 -422 -13 -120 -13 -2028 0 -2148 20 -171 78 -292
200 -417 83 -84 168 -137 288 -178 l77 -26 1130 0 1130 0 80 27 c233 80 406
263 465 494 19 74 20 116 20 1174 0 1058 -1 1100 -20 1174 -59 231 -232 414
-465 494 l-80 27 -1105 2 c-944 1 -1115 -1 -1175 -13z m2206 -597 c14 -9 31
-29 37 -43 9 -18 12 -296 12 -1047 0 -998 -1 -1023 -20 -1054 -11 -18 -32 -36
-47 -40 -15 -5 -487 -8 -1048 -8 -967 0 -1022 1 -1048 18 -16 10 -32 30 -38
44 -6 16 -8 409 -7 1058 3 1002 4 1034 22 1054 11 12 33 25 50 30 18 6 463 9
1046 8 952 -2 1017 -3 1041 -20z"/>
<path d="M6695 6261 c-74 -33 -70 21 -70 -901 0 -707 2 -831 15 -854 41 -78
178 -73 212 8 10 25 13 204 13 856 0 770 -1 828 -17 853 -34 50 -94 66 -153
38z"/>
<path d="M8241 6267 c-19 -7 -44 -25 -55 -40 -20 -27 -21 -42 -24 -334 l-3
-305 -48 45 c-55 52 -140 97 -226 122 -82 24 -257 17 -336 -14 -81 -31 -192
-112 -245 -179 -54 -68 -106 -173 -130 -262 -25 -91 -26 -310 -1 -400 64 -241
238 -420 452 -465 182 -38 354 9 479 131 51 50 56 53 56 31 0 -51 14 -89 42
-118 25 -25 37 -29 82 -29 64 0 99 27 116 89 7 28 10 285 8 849 -3 750 -4 810
-20 835 -31 46 -91 64 -147 44z m-298 -752 c63 -31 144 -110 175 -171 84 -165
73 -389 -27 -534 -120 -175 -349 -220 -521 -102 -220 150 -253 520 -64 722 88
94 155 121 289 117 75 -3 100 -8 148 -32z"/>
<path d="M13014 6266 c-17 -8 -40 -26 -52 -41 -21 -27 -22 -35 -22 -331 l0
-304 -62 50 c-116 93 -218 130 -363 130 -166 0 -269 -44 -390 -165 -157 -156
-225 -369 -195 -610 21 -169 79 -293 190 -405 215 -216 544 -226 759 -23 30
29 57 53 58 53 2 0 3 -23 3 -51 0 -45 4 -55 34 -85 29 -29 41 -34 83 -34 58 0
90 19 109 66 21 50 21 1638 0 1689 -24 57 -95 86 -152 61z m-349 -731 c196
-59 316 -292 275 -534 -23 -136 -110 -265 -216 -319 -127 -65 -290 -47 -409
44 -49 37 -111 134 -135 211 -28 91 -28 241 1 326 46 137 145 240 269 278 43
13 164 10 215 -6z"/>
<path d="M3074 6166 c-17 -7 -40 -26 -52 -41 l-22 -28 0 -789 0 -790 35 -35
34 -34 423 3 c408 3 425 4 490 26 136 46 244 144 288 261 45 117 42 315 -4
417 -35 75 -122 164 -201 204 l-65 33 47 32 c64 43 96 80 126 140 37 73 49
155 37 246 -24 189 -110 295 -284 347 -73 22 -805 29 -852 8z m781 -261 c64
-40 89 -88 93 -182 7 -119 -29 -186 -123 -229 -48 -23 -58 -24 -307 -24 l-258
0 0 236 0 235 273 -3 274 -3 48 -30z m30 -696 c56 -19 130 -94 144 -144 6 -22
11 -74 11 -115 0 -92 -29 -161 -86 -208 -68 -56 -106 -62 -416 -62 l-278 0 0
276 0 276 293 -5 c216 -3 302 -7 332 -18z"/>
<path d="M6055 6168 c-37 -20 -45 -40 -45 -114 0 -107 12 -119 129 -119 111 0
129 12 138 96 7 68 -15 125 -52 139 -35 13 -145 12 -170 -2z"/>
<path d="M8864 6166 c-17 -7 -40 -26 -52 -41 l-22 -28 0 -789 0 -790 35 -35
34 -34 423 3 c408 3 425 4 490 26 37 12 95 41 130 65 112 75 170 178 189 334
27 216 -60 394 -236 483 l-65 33 43 27 c132 84 195 237 168 411 -27 174 -116
276 -286 327 -72 22 -805 29 -851 8z m781 -261 c69 -43 96 -98 96 -198 0 -89
-20 -139 -76 -185 -58 -47 -91 -52 -364 -52 l-251 0 0 236 0 235 273 -3 274
-3 48 -30z m28 -695 c52 -19 116 -76 138 -124 22 -49 26 -177 7 -240 -8 -25
-31 -59 -59 -88 -73 -73 -101 -78 -431 -78 l-278 0 0 276 0 276 293 -5 c209
-3 303 -8 330 -17z"/>
<path d="M11440 6167 c-38 -19 -51 -54 -47 -126 3 -55 7 -67 31 -87 50 -44
211 -28 230 21 3 9 6 45 6 80 0 78 -5 92 -41 110 -34 18 -145 19 -179 2z"/>
<path d="M10889 5747 c-85 -29 -168 -93 -219 -169 l-40 -60 0 48 c0 116 -44
174 -132 174 -43 0 -54 -4 -78 -30 -15 -16 -30 -44 -34 -61 -11 -54 -7 -1081
4 -1121 28 -99 169 -108 223 -15 9 16 13 125 17 402 l5 380 34 70 c77 156 213
227 347 181 60 -20 89 -20 124 1 35 21 50 52 50 107 0 34 -6 49 -27 71 -16 15
-38 31 -51 36 -43 17 -154 10 -223 -14z"/>
<path d="M13921 5754 c-209 -56 -373 -231 -432 -462 -23 -93 -25 -275 -4 -376
47 -221 229 -418 440 -477 81 -23 237 -18 318 10 83 28 174 87 228 149 l41 47
-4 -115 c-4 -88 -9 -126 -25 -161 -46 -103 -136 -167 -268 -190 -100 -17 -195
-6 -335 41 -66 22 -135 40 -153 40 -43 0 -82 -30 -97 -75 -25 -76 47 -144 200
-188 311 -90 595 -43 764 127 73 74 110 138 136 242 19 73 20 112 20 702 l0
624 -34 34 c-29 29 -41 34 -83 34 -82 0 -123 -49 -123 -146 l0 -47 -58 55
c-62 60 -143 106 -231 132 -68 20 -225 20 -300 0z m318 -223 c113 -35 204
-125 252 -251 26 -67 37 -222 20 -299 -59 -275 -337 -417 -580 -295 -147 73
-231 222 -231 409 0 142 37 241 124 333 80 84 163 120 283 121 43 1 95 -6 132
-18z"/>
<path d="M15451 5754 c-75 -20 -183 -79 -242 -132 -146 -131 -219 -312 -219
-540 0 -394 272 -662 670 -662 150 0 328 69 426 164 49 47 54 56 54 95 0 34
-6 49 -29 72 -43 42 -93 40 -157 -6 -158 -114 -339 -135 -499 -56 -110 55
-201 174 -224 294 l-8 47 444 0 c489 0 497 1 528 61 32 61 8 215 -52 338 -28
58 -57 96 -123 161 -90 91 -168 138 -270 165 -70 19 -228 18 -299 -1z m303
-237 c106 -49 196 -161 196 -244 l0 -33 -359 0 -359 0 10 38 c31 115 118 214
215 245 78 25 85 26 165 22 55 -2 92 -10 132 -28z"/>
<path d="M6072 5734 c-53 -37 -52 -30 -52 -634 0 -604 -1 -597 52 -634 13 -9
43 -16 71 -16 42 0 54 5 83 34 l34 34 0 582 0 582 -34 34 c-29 29 -41 34 -83
34 -28 0 -58 -7 -71 -16z"/>
<path d="M11444 5716 l-34 -34 0 -582 0 -582 34 -34 c29 -29 41 -34 83 -34 58
0 90 19 109 66 21 49 21 1119 0 1168 -19 47 -51 66 -109 66 -42 0 -54 -5 -83
-34z"/>
<path d="M4641 5724 c-48 -34 -51 -57 -51 -446 1 -413 8 -479 64 -593 88 -178
289 -277 526 -261 214 15 362 101 439 254 57 114 61 146 61 591 l0 403 -34 34
c-29 29 -41 34 -83 34 -52 0 -85 -17 -105 -53 -10 -16 -14 -128 -18 -427 -5
-396 -5 -406 -28 -455 -53 -114 -133 -158 -287 -157 -168 2 -261 83 -285 249
-5 37 -10 227 -10 422 l0 353 -34 34 c-29 29 -41 34 -83 34 -29 0 -58 -7 -72
-16z"/>
<path d="M4285 3368 c-46 -25 -86 -74 -100 -122 -39 -130 0 -256 95 -303 54
-28 101 -29 156 -4 80 37 119 119 112 236 -9 133 -76 205 -190 205 -29 0 -62
-6 -73 -12z m145 -56 c89 -65 83 -279 -10 -327 -67 -35 -136 -10 -170 60 -29
61 -26 188 6 232 45 61 117 76 174 35z"/>
<path d="M9595 3370 c-42 -17 -70 -59 -70 -106 0 -56 19 -76 133 -134 83 -43
87 -47 90 -82 5 -56 -27 -81 -99 -76 -36 3 -66 12 -86 26 -29 21 -31 21 -47 3
-20 -22 -12 -30 55 -60 86 -40 190 -15 222 52 38 80 11 130 -100 182 -95 45
-113 60 -113 95 0 58 77 86 144 51 30 -15 43 -18 53 -10 21 18 16 27 -27 49
-41 21 -118 26 -155 10z"/>
<path d="M11315 3366 c-69 -31 -107 -105 -109 -211 -2 -156 97 -255 229 -231
46 9 103 60 128 115 38 86 20 228 -36 290 -45 49 -146 66 -212 37z m148 -51
c52 -34 80 -149 57 -234 -7 -26 -26 -59 -45 -78 -28 -28 -40 -33 -78 -33 -57
0 -99 32 -123 95 -21 56 -15 159 13 207 36 64 116 83 176 43z"/>
<path d="M2920 3150 l0 -220 25 0 25 0 0 100 0 100 85 0 c78 0 85 2 85 20 0
17 -8 19 -82 22 l-83 3 -3 78 -3 77 101 0 c93 0 100 1 100 20 0 19 -7 20 -125
20 l-125 0 0 -220z"/>
<path d="M3530 3150 l0 -220 25 0 c24 0 24 2 27 93 l3 92 42 3 41 3 54 -95
c47 -85 56 -96 81 -96 15 0 27 3 27 8 0 4 -23 45 -50 92 -54 92 -57 100 -36
100 23 0 73 56 80 91 10 51 -10 107 -47 129 -26 17 -51 20 -139 20 l-108 0 0
-220z m214 159 c36 -28 36 -86 0 -120 -22 -20 -35 -24 -92 -24 l-67 0 -3 83
-3 82 69 0 c55 0 75 -4 96 -21z"/>
<path d="M4930 3150 c0 -213 1 -220 20 -220 19 0 20 8 22 188 l3 187 44 -125
c61 -172 78 -210 95 -210 15 0 20 12 91 210 21 58 41 108 44 112 3 4 5 -76 3
-177 l-3 -185 26 0 25 0 0 220 0 220 -34 0 c-39 0 -31 16 -109 -209 l-44 -123
-59 166 -59 166 -32 0 -33 0 0 -220z"/>
<path d="M6110 3150 l0 -220 85 0 c170 0 234 61 235 222 0 87 -10 121 -48 162
-41 44 -81 56 -182 56 l-90 0 0 -220z m197 160 c41 -24 63 -68 70 -135 13
-121 -55 -205 -167 -205 l-40 0 0 180 0 180 53 0 c34 0 63 -7 84 -20z"/>
<path d="M6810 3150 l0 -220 25 0 c25 0 25 0 25 95 l0 95 44 0 44 0 54 -95
c47 -84 56 -95 81 -95 15 0 27 3 27 6 0 3 -22 43 -50 90 -27 47 -50 88 -50 93
0 5 14 14 30 21 39 16 60 56 60 115 0 92 -39 115 -191 115 l-99 0 0 -220z
m214 159 c36 -28 36 -86 1 -119 -21 -20 -39 -25 -95 -28 l-70 -4 0 86 0 86 69
0 c54 0 74 -4 95 -21z"/>
<path d="M7480 3150 l0 -220 130 0 c123 0 130 1 130 20 0 19 -7 20 -105 20
l-105 0 0 85 0 85 85 0 c84 0 85 0 85 25 0 25 -1 25 -85 25 l-85 0 0 70 0 70
100 0 c93 0 100 1 100 20 0 19 -7 20 -125 20 l-125 0 0 -220z"/>
<path d="M8154 3228 c-26 -79 -60 -178 -75 -220 l-28 -78 29 0 c27 0 30 4 50
70 l21 71 82 -3 82 -3 22 -65 c19 -58 24 -65 50 -68 l29 -3 -74 221 -74 220
-33 0 -33 0 -48 -142z m146 -110 c0 -5 -30 -8 -66 -8 l-66 0 7 28 c3 15 18 65
33 112 l26 85 33 -105 c18 -58 33 -108 33 -112z"/>
<path d="M8760 3150 l0 -220 26 0 26 0 -3 184 c-2 102 -2 182 0 180 3 -2 30
-75 61 -162 75 -207 76 -207 151 1 31 87 59 160 61 162 2 2 1 -79 -1 -181 l-3
-184 26 0 26 0 0 220 0 220 -33 0 -33 0 -59 -166 -58 -165 -60 165 -59 166
-34 0 -34 0 0 -220z"/>
<path d="M10540 3350 c0 -18 7 -20 70 -20 l70 0 0 -200 0 -200 25 0 25 0 0
200 0 200 70 0 c63 0 70 2 70 20 0 19 -7 20 -165 20 -158 0 -165 -1 -165 -20z"/>
<path d="M12370 3150 l0 -220 30 0 30 0 0 96 0 95 42 -3 c41 -3 42 -4 92 -95
48 -87 53 -92 83 -93 l33 0 -50 85 c-60 100 -66 115 -50 115 7 0 25 9 41 21
63 45 61 160 -4 199 -26 17 -51 20 -139 20 l-108 0 0 -220z m203 169 c30 -16
37 -28 37 -67 0 -66 -37 -92 -131 -92 l-49 0 0 85 0 85 61 0 c33 0 70 -5 82
-11z"/>
<path d="M13040 3150 l0 -220 130 0 c123 0 130 1 130 20 0 18 -8 20 -102 22
l-103 3 -3 83 -3 82 86 0 c84 0 85 0 85 25 0 25 -1 25 -85 25 l-85 0 0 70 0
70 100 0 c93 0 100 1 100 20 0 19 -7 20 -125 20 l-125 0 0 -220z"/>
<path d="M13692 3158 c-39 -117 -72 -217 -72 -221 0 -5 12 -7 26 -5 22 3 29
12 47 68 l22 65 82 3 82 3 21 -71 c20 -66 23 -70 50 -70 l28 0 -72 218 -73
217 -34 3 -34 3 -73 -213z m137 73 c17 -55 31 -104 31 -110 0 -7 -25 -11 -66
-11 -58 0 -66 2 -61 18 17 62 61 202 63 202 1 0 16 -45 33 -99z"/>
<path d="M14320 3150 l0 -220 125 0 c118 0 125 1 125 20 0 19 -7 20 -95 20
l-95 0 0 200 0 200 -30 0 -30 0 0 -220z"/>
<path d="M14930 3150 l0 -220 25 0 25 0 0 220 0 220 -25 0 -25 0 0 -220z"/>
<path d="M15340 3350 c0 -18 7 -20 70 -20 l70 0 0 -200 0 -200 25 0 25 0 0
200 0 200 70 0 c63 0 70 2 70 20 0 19 -7 20 -165 20 -158 0 -165 -1 -165 -20z"/>
<path d="M16035 3238 c65 -133 65 -133 65 -220 l0 -88 30 0 30 0 0 90 0 90 65
130 65 130 -30 0 c-22 0 -33 -6 -39 -22 -5 -13 -27 -63 -50 -113 l-42 -89 -51
112 c-47 104 -52 112 -79 112 l-28 0 64 -132z"/>
</g>
</svg>
